<svg version="1.1" id="Layer_1" xmlns="http://www.w3.org/2000/svg" xmlns:xlink="http://www.w3.org/1999/xlink" x="0px" y="0px"
	 width="100%" viewBox="0 0 3544 3544" enable-background="new 0 0 3544 3544" xml:space="preserve">
<path fill="transparent" opacity="1.000000" stroke="none" 
	d="
M2342.000000,3546.000000 
	C1561.333374,3546.000000 781.666687,3546.000000 2.000000,3546.000000 
	C2.000000,2364.666748 2.000000,1183.333374 2.000000,2.000000 
	C1183.333374,2.000000 2364.666748,2.000000 3546.000000,2.000000 
	C3546.000000,1183.333374 3546.000000,2364.666748 3546.000000,3546.000000 
	C3145.000000,3546.000000 2744.000000,3546.000000 2342.000000,3546.000000 
M1624.500122,2704.394531 
	C1671.476807,2732.176270 1718.426636,2760.003662 1765.449219,2787.707275 
	C1777.017212,2794.522949 1789.188721,2794.234131 1800.811401,2788.276855 
	C1815.609009,2780.692871 1830.121582,2772.519043 1844.488403,2764.138916 
	C1856.547485,2757.105225 1868.473755,2749.780518 1879.992798,2741.903564 
	C1890.862183,2734.469971 1897.809448,2724.076904 1899.283203,2710.642090 
	C1899.716919,2706.687256 1899.765503,2702.675781 1899.765747,2698.690186 
	C1899.786377,2369.720215 1899.784668,2040.750122 1899.784546,1711.780151 
	C1899.784546,1709.447021 1899.904541,1707.106323 1899.760132,1704.781982 
	C1898.940430,1691.582520 1896.552368,1678.832031 1885.979736,1669.613525 
	C1880.234131,1664.603760 1874.031372,1659.966919 1867.516724,1656.016479 
	C1835.937744,1636.867432 1804.077637,1618.181396 1772.516602,1599.003174 
	C1730.432007,1573.430420 1688.552124,1547.520996 1646.538940,1521.830200 
	C1634.620361,1514.542236 1622.448120,1507.667358 1610.564453,1500.324097 
	C1596.026245,1491.340332 1582.232666,1493.096069 1568.502319,1502.180420 
	C1555.455688,1510.812500 1542.353516,1519.377075 1529.023193,1527.560059 
	C1506.342896,1541.482300 1483.422119,1555.012573 1460.681763,1568.838013 
	C1440.786499,1580.933838 1420.822021,1592.933472 1401.277588,1605.577637 
	C1395.565796,1609.272827 1390.902466,1614.774536 1386.296753,1619.929077 
	C1383.157837,1623.442139 1383.237549,1627.385132 1386.365479,1631.653442 
	C1392.773071,1640.396606 1400.475586,1647.454224 1409.737793,1653.058228 
	C1440.767822,1671.833252 1471.716064,1690.743896 1502.664185,1709.653809 
	C1522.540527,1721.798584 1542.400269,1733.971558 1562.198486,1746.243042 
	C1589.354248,1763.075073 1616.465942,1779.978271 1643.553589,1796.919556 
	C1656.744019,1805.169067 1662.864746,1817.540283 1663.794189,1832.738892 
	C1664.098999,1837.722778 1664.198242,1842.726318 1664.198730,1847.720825 
	C1664.218384,2028.704346 1664.221069,2209.687988 1664.197266,2390.671387 
	C1664.196167,2399.332031 1664.302856,2408.020752 1663.647461,2416.642334 
	C1663.278320,2421.500977 1662.109985,2426.540527 1660.140015,2430.983398 
	C1656.586060,2438.997803 1647.899536,2443.000488 1639.551270,2440.164551 
	C1632.059937,2437.619873 1624.733398,2434.245117 1617.845825,2430.335449 
	C1601.350830,2420.971436 1585.252808,2410.910645 1568.820679,2401.433105 
	C1536.824707,2382.978516 1504.725708,2364.701904 1472.638428,2346.405762 
	C1448.358643,2332.561768 1424.041992,2318.782471 1399.719482,2305.013672 
	C1389.295410,2299.112793 1378.736084,2293.447510 1368.373047,2287.442627 
	C1326.341797,2263.087158 1284.374023,2238.622559 1242.361694,2214.234619 
	C1203.795288,2191.846924 1165.215210,2169.482178 1126.612183,2147.157227 
	C1114.252197,2140.009277 1107.190430,2129.006592 1104.424194,2115.430176 
	C1102.845581,2107.682861 1102.299683,2099.604248 1102.295654,2091.674561 
	C1102.186768,1879.360596 1102.153809,1667.046631 1102.279053,1454.732666 
	C1102.294556,1428.460449 1103.238770,1402.187866 1103.812622,1375.916870 
	C1104.117920,1361.942871 1110.596924,1350.853027 1121.354370,1342.666382 
	C1129.517212,1336.454346 1138.532349,1331.284058 1147.475952,1326.190796 
	C1173.209595,1311.536011 1199.245972,1297.408813 1224.879883,1282.584106 
	C1244.465576,1271.257446 1263.120728,1258.242432 1283.085083,1247.668945 
	C1311.334961,1232.707275 1339.622559,1217.979980 1366.672241,1200.816895 
	C1386.028564,1188.535400 1406.740112,1178.409912 1426.610474,1166.913940 
	C1459.155151,1148.085083 1491.469116,1128.857544 1523.957397,1109.930542 
	C1540.629395,1100.217896 1557.521729,1090.883789 1574.218872,1081.213745 
	C1598.979370,1066.873657 1623.057617,1051.210327 1648.527954,1038.280273 
	C1676.272339,1024.195801 1701.903809,1006.997864 1727.777222,990.037048 
	C1734.682495,985.510376 1738.502197,978.904602 1738.083496,970.680908 
	C1737.646362,962.099304 1737.191772,953.332397 1735.125854,945.050476 
	C1722.741211,895.399475 1709.936646,845.852966 1697.153076,796.302307 
	C1694.747559,786.978577 1692.253052,777.630859 1688.982300,768.589844 
	C1685.485107,758.922302 1678.814941,756.190735 1668.552856,757.209900 
	C1660.854492,757.974426 1654.609131,761.508362 1648.379761,765.214111 
	C1619.213989,782.564331 1590.331787,800.396057 1561.037354,817.523865 
	C1527.722778,837.002258 1493.034546,854.005066 1460.233032,874.490173 
	C1431.178833,892.635010 1400.979980,908.942505 1371.352661,926.175110 
	C1347.475220,940.063293 1324.158203,954.994141 1299.763916,967.895508 
	C1265.009033,986.276428 1231.227295,1006.220703 1197.669434,1026.644775 
	C1182.645020,1035.788818 1166.588135,1043.218994 1151.328735,1051.998901 
	C1132.581299,1062.785522 1114.328491,1074.431519 1095.588013,1085.230591 
	C1071.659668,1099.019165 1047.341919,1112.131958 1023.402527,1125.901733 
	C993.400818,1143.158569 963.670654,1160.886963 933.704407,1178.206177 
	C921.320190,1185.363770 908.167358,1191.278198 896.197815,1199.043091 
	C883.005920,1207.601196 870.833252,1217.743530 868.687683,1235.011963 
	C868.033142,1240.280273 867.826843,1245.634521 867.826172,1250.949463 
	C867.787292,1579.252808 867.789673,1907.556274 867.807556,2235.859619 
	C867.807800,2240.187500 867.709961,2244.559082 868.249390,2248.835449 
	C870.049500,2263.106445 876.261658,2274.927490 889.010681,2282.297852 
	C926.177185,2303.784424 963.449707,2325.087891 1000.713135,2346.406250 
	C1027.574951,2361.773682 1054.579590,2376.893066 1081.358398,2392.403076 
	C1122.828247,2416.421631 1164.049805,2440.869873 1205.583130,2464.777100 
	C1241.922852,2485.694336 1278.731812,2505.798828 1315.002686,2526.833008 
	C1367.099365,2557.045410 1418.500122,2588.450928 1471.125244,2617.764404 
	C1499.612183,2633.632080 1527.875488,2649.901123 1556.253662,2665.964355 
	C1578.548706,2678.584473 1600.865356,2691.166504 1624.500122,2704.394531 
M2478.290283,1378.618042 
	C2478.790771,1384.224854 2479.727783,1389.831665 2479.729004,1395.438599 
	C2479.799072,1713.750366 2479.791016,2032.062256 2479.797852,2350.374023 
	C2479.797852,2354.038818 2479.733398,2357.714111 2479.981201,2361.365479 
	C2480.285156,2365.850830 2481.955078,2369.663330 2486.726807,2372.452637 
	C2491.728027,2370.354248 2497.136963,2368.666260 2501.970459,2365.953857 
	C2520.252441,2355.693848 2538.288818,2344.996338 2556.528564,2334.659668 
	C2583.160400,2319.566406 2610.044189,2304.910645 2636.505127,2289.525879 
	C2648.260010,2282.691406 2659.303223,2274.618164 2670.555664,2266.940674 
	C2676.443359,2262.922852 2679.208008,2256.750488 2679.895020,2249.973145 
	C2680.897949,2240.077148 2681.714600,2230.110107 2681.717529,2220.172852 
	C2681.809082,1902.194458 2681.789307,1584.215942 2681.810303,1266.237549 
	C2681.811035,1256.243408 2682.006104,1246.247803 2682.232422,1236.255615 
	C2682.335205,1231.707031 2681.085938,1227.923096 2677.942627,1224.447632 
	C2666.334961,1211.613159 2651.955322,1202.551147 2636.456543,1195.686035 
	C2623.571289,1189.978394 2611.452393,1183.293213 2599.882324,1175.377197 
	C2595.500488,1172.379272 2590.833496,1169.772705 2586.173828,1167.210815 
	C2570.725342,1158.716919 2555.141846,1150.466309 2539.762939,1141.849487 
	C2526.991943,1134.694092 2514.410156,1127.198730 2501.792969,1119.772095 
	C2486.599121,1110.828857 2470.884277,1102.626099 2456.416016,1092.626099 
	C2429.996826,1074.365967 2401.141846,1060.645386 2372.921143,1045.720459 
	C2365.527344,1041.810303 2357.577881,1041.649170 2349.967773,1045.388794 
	C2344.899902,1047.879028 2339.993408,1050.752441 2335.219727,1053.777832 
	C2288.001465,1083.702515 2240.793213,1113.644043 2193.679199,1143.732300 
	C2187.824707,1147.471069 2182.547363,1152.110229 2176.974365,1156.294556 
	C2173.201904,1159.126953 2173.114990,1162.711060 2176.042236,1165.721924 
	C2179.691406,1169.474854 2183.729980,1173.052246 2188.161133,1175.802002 
	C2199.750977,1182.994385 2211.624512,1189.731689 2223.424805,1196.582153 
	C2236.370117,1204.097046 2248.813232,1212.809204 2262.473877,1218.672485 
	C2278.168945,1225.409302 2292.738770,1233.847168 2307.419678,1242.325562 
	C2346.322754,1264.792236 2385.492432,1286.799683 2424.274658,1309.471313 
	C2435.701416,1316.151489 2446.791992,1323.712646 2456.960938,1332.164429 
	C2470.652100,1343.543945 2477.250488,1359.026123 2478.290283,1378.618042 
M1989.418945,1285.792969 
	C1985.007935,1287.123657 1980.295410,1287.856689 1976.243774,1289.900024 
	C1965.251221,1295.443604 1954.421997,1301.338989 1943.736938,1307.459351 
	C1909.663208,1326.976685 1875.638916,1346.581543 1841.694458,1366.322754 
	C1830.478149,1372.845825 1819.394653,1379.631592 1808.561279,1386.769043 
	C1799.666504,1392.628906 1799.663086,1399.220581 1807.922363,1405.975952 
	C1809.982788,1407.661499 1812.060303,1409.364136 1814.305908,1410.779663 
	C1833.168945,1422.670532 1851.928589,1434.735107 1871.001953,1446.280396 
	C1894.054077,1460.233643 1917.518799,1473.506470 1940.536621,1487.514526 
	C1953.030396,1495.117920 1964.764648,1503.963501 1977.199951,1511.670288 
	C1998.975952,1525.166016 2021.193115,1537.952637 2042.905518,1551.547241 
	C2057.067627,1560.414795 2068.747314,1571.753540 2071.231445,1589.417114 
	C2072.199951,1596.302490 2072.169678,1603.363770 2072.170654,1610.344849 
	C2072.212891,1906.663696 2072.214844,2202.982666 2072.189209,2499.301514 
	C2072.187744,2518.628662 2071.639404,2537.959717 2071.898926,2557.281494 
	C2072.063721,2569.551025 2072.889648,2581.842773 2074.091064,2594.058594 
	C2075.178467,2605.120117 2080.497314,2608.112549 2090.104492,2602.973877 
	C2112.106934,2591.205078 2134.015137,2579.242676 2155.680420,2566.867188 
	C2175.905273,2555.313965 2195.729004,2543.060791 2215.800537,2531.237061 
	C2232.432129,2521.440430 2249.162109,2511.811523 2265.859375,2502.126709 
	C2271.686035,2498.747559 2275.407471,2493.931885 2276.232666,2487.124268 
	C2276.789795,2482.528076 2277.779785,2477.913086 2277.690430,2473.323730 
	C2277.489990,2463.043945 2276.277588,2452.774902 2276.274902,2442.501465 
	C2276.193115,2133.516602 2276.213623,1824.531738 2276.190674,1515.546875 
	C2276.189453,1501.552734 2275.832031,1487.558716 2275.821533,1473.564453 
	C2275.812012,1460.554321 2270.502930,1450.392700 2259.719727,1443.258911 
	C2253.064209,1438.855713 2246.138184,1434.857300 2239.290039,1430.749878 
	C2213.038818,1415.003784 2186.659424,1399.467651 2160.540039,1383.505859 
	C2136.971924,1369.103394 2113.698975,1354.218262 2090.260498,1339.602539 
	C2078.685303,1332.384399 2067.084961,1325.204102 2055.399170,1318.167480 
	C2039.453369,1308.565674 2023.592896,1298.795044 2007.304810,1289.805054 
	C2002.608887,1287.213379 1996.567993,1287.058228 1989.418945,1285.792969 
M1948.592285,782.361938 
	C1936.806396,775.497559 1925.197510,768.304199 1913.193481,761.845276 
	C1894.806274,751.951904 1884.301025,759.659424 1878.531006,774.966370 
	C1877.827515,776.832458 1877.177979,778.727478 1876.647705,780.648926 
	C1873.729858,791.222839 1870.740479,801.778992 1867.990479,812.396851 
	C1860.076416,842.954956 1851.816406,873.433838 1844.577393,904.152466 
	C1840.016846,923.504639 1833.223267,942.234436 1830.985718,962.310486 
	C1829.437378,976.201660 1833.075806,985.933167 1844.406616,992.761536 
	C1865.205078,1005.295471 1886.185303,1017.541870 1907.332642,1029.478027 
	C1924.942993,1039.417725 1942.178345,1038.218506 1959.016602,1026.781372 
	C1973.333130,1017.057007 1988.028198,1007.886108 2002.626953,998.582092 
	C2041.080566,974.074829 2079.663574,949.768188 2117.960693,925.019226 
	C2124.296631,920.924805 2129.818359,915.348572 2135.040283,909.818726 
	C2139.600342,904.989868 2139.513672,899.543335 2135.167480,894.555298 
	C2131.933350,890.843445 2128.188232,887.271057 2124.002197,884.743713 
	C2096.653320,868.231384 2069.229736,851.835693 2041.621216,835.761230 
	C2011.142456,818.015320 1980.439453,800.654480 1948.592285,782.361938 
z"/>
<path fill="#8DFF8D" opacity="1.000000" stroke="none" 
	d="
M1623.836304,2704.080078 
	C1600.865356,2691.166504 1578.548706,2678.584473 1556.253662,2665.964355 
	C1527.875488,2649.901123 1499.612183,2633.632080 1471.125244,2617.764404 
	C1418.500122,2588.450928 1367.099365,2557.045410 1315.002686,2526.833008 
	C1278.731812,2505.798828 1241.922852,2485.694336 1205.583130,2464.777100 
	C1164.049805,2440.869873 1122.828247,2416.421631 1081.358398,2392.403076 
	C1054.579590,2376.893066 1027.574951,2361.773682 1000.713135,2346.406250 
	C963.449707,2325.087891 926.177185,2303.784424 889.010681,2282.297852 
	C876.261658,2274.927490 870.049500,2263.106445 868.249390,2248.835449 
	C867.709961,2244.559082 867.807800,2240.187500 867.807556,2235.859619 
	C867.789673,1907.556274 867.787292,1579.252808 867.826172,1250.949463 
	C867.826843,1245.634521 868.033142,1240.280273 868.687683,1235.011963 
	C870.833252,1217.743530 883.005920,1207.601196 896.197815,1199.043091 
	C908.167358,1191.278198 921.320190,1185.363770 933.704407,1178.206177 
	C963.670654,1160.886963 993.400818,1143.158569 1023.402527,1125.901733 
	C1047.341919,1112.131958 1071.659668,1099.019165 1095.588013,1085.230591 
	C1114.328491,1074.431519 1132.581299,1062.785522 1151.328735,1051.998901 
	C1166.588135,1043.218994 1182.645020,1035.788818 1197.669434,1026.644775 
	C1231.227295,1006.220703 1265.009033,986.276428 1299.763916,967.895508 
	C1324.158203,954.994141 1347.475220,940.063293 1371.352661,926.175110 
	C1400.979980,908.942505 1431.178833,892.635010 1460.233032,874.490173 
	C1493.034546,854.005066 1527.722778,837.002258 1561.037354,817.523865 
	C1590.331787,800.396057 1619.213989,782.564331 1648.379761,765.214111 
	C1654.609131,761.508362 1660.854492,757.974426 1668.552856,757.209900 
	C1678.814941,756.190735 1685.485107,758.922302 1688.982300,768.589844 
	C1692.253052,777.630859 1694.747559,786.978577 1697.153076,796.302307 
	C1709.936646,845.852966 1722.741211,895.399475 1735.125854,945.050476 
	C1737.191772,953.332397 1737.646362,962.099304 1738.083496,970.680908 
	C1738.502197,978.904602 1734.682495,985.510376 1727.777222,990.037048 
	C1701.903809,1006.997864 1676.272339,1024.195801 1648.527954,1038.280273 
	C1623.057617,1051.210327 1598.979370,1066.873657 1574.218872,1081.213745 
	C1557.521729,1090.883789 1540.629395,1100.217896 1523.957397,1109.930542 
	C1491.469116,1128.857544 1459.155151,1148.085083 1426.610474,1166.913940 
	C1406.740112,1178.409912 1386.028564,1188.535400 1366.672241,1200.816895 
	C1339.622559,1217.979980 1311.334961,1232.707275 1283.085083,1247.668945 
	C1263.120728,1258.242432 1244.465576,1271.257446 1224.879883,1282.584106 
	C1199.245972,1297.408813 1173.209595,1311.536011 1147.475952,1326.190796 
	C1138.532349,1331.284058 1129.517212,1336.454346 1121.354370,1342.666382 
	C1110.596924,1350.853027 1104.117920,1361.942871 1103.812622,1375.916870 
	C1103.238770,1402.187866 1102.294556,1428.460449 1102.279053,1454.732666 
	C1102.153809,1667.046631 1102.186768,1879.360596 1102.295654,2091.674561 
	C1102.299683,2099.604248 1102.845581,2107.682861 1104.424194,2115.430176 
	C1107.190430,2129.006592 1114.252197,2140.009277 1126.612183,2147.157227 
	C1165.215210,2169.482178 1203.795288,2191.846924 1242.361694,2214.234619 
	C1284.374023,2238.622559 1326.341797,2263.087158 1368.373047,2287.442627 
	C1378.736084,2293.447510 1389.295410,2299.112793 1399.719482,2305.013672 
	C1424.041992,2318.782471 1448.358643,2332.561768 1472.638428,2346.405762 
	C1504.725708,2364.701904 1536.824707,2382.978516 1568.820679,2401.433105 
	C1585.252808,2410.910645 1601.350830,2420.971436 1617.845825,2430.335449 
	C1624.733398,2434.245117 1632.059937,2437.619873 1639.551270,2440.164551 
	C1647.899536,2443.000488 1656.586060,2438.997803 1660.140015,2430.983398 
	C1662.109985,2426.540527 1663.278320,2421.500977 1663.647461,2416.642334 
	C1664.302856,2408.020752 1664.196167,2399.332031 1664.197266,2390.671387 
	C1664.221069,2209.687988 1664.218384,2028.704346 1664.198730,1847.720825 
	C1664.198242,1842.726318 1664.098999,1837.722778 1663.794189,1832.738892 
	C1662.864746,1817.540283 1656.744019,1805.169067 1643.553589,1796.919556 
	C1616.465942,1779.978271 1589.354248,1763.075073 1562.198486,1746.243042 
	C1542.400269,1733.971558 1522.540527,1721.798584 1502.664185,1709.653809 
	C1471.716064,1690.743896 1440.767822,1671.833252 1409.737793,1653.058228 
	C1400.475586,1647.454224 1392.773071,1640.396606 1386.365479,1631.653442 
	C1383.237549,1627.385132 1383.157837,1623.442139 1386.296753,1619.929077 
	C1390.902466,1614.774536 1395.565796,1609.272827 1401.277588,1605.577637 
	C1420.822021,1592.933472 1440.786499,1580.933838 1460.681763,1568.838013 
	C1483.422119,1555.012573 1506.342896,1541.482300 1529.023193,1527.560059 
	C1542.353516,1519.377075 1555.455688,1510.812500 1568.502319,1502.180420 
	C1582.232666,1493.096069 1596.026245,1491.340332 1610.564453,1500.324097 
	C1622.448120,1507.667358 1634.620361,1514.542236 1646.538940,1521.830200 
	C1688.552124,1547.520996 1730.432007,1573.430420 1772.516602,1599.003174 
	C1804.077637,1618.181396 1835.937744,1636.867432 1867.516724,1656.016479 
	C1874.031372,1659.966919 1880.234131,1664.603760 1885.979736,1669.613525 
	C1896.552368,1678.832031 1898.940430,1691.582520 1899.760132,1704.781982 
	C1899.904541,1707.106323 1899.784546,1709.447021 1899.784546,1711.780151 
	C1899.784668,2040.750122 1899.786377,2369.720215 1899.765747,2698.690186 
	C1899.765503,2702.675781 1899.716919,2706.687256 1899.283203,2710.642090 
	C1897.809448,2724.076904 1890.862183,2734.469971 1879.992798,2741.903564 
	C1868.473755,2749.780518 1856.547485,2757.105225 1844.488403,2764.138916 
	C1830.121582,2772.519043 1815.609009,2780.692871 1800.811401,2788.276855 
	C1789.188721,2794.234131 1777.017212,2794.522949 1765.449219,2787.707275 
	C1718.426636,2760.003662 1671.476807,2732.176270 1623.836304,2704.080078 
z"/>
<path fill="#6EBFEE" opacity="1.000000" stroke="none" 
	d="
M2478.255859,1377.724121 
	C2477.250488,1359.026123 2470.652100,1343.543945 2456.960938,1332.164429 
	C2446.791992,1323.712646 2435.701416,1316.151489 2424.274658,1309.471313 
	C2385.492432,1286.799683 2346.322754,1264.792236 2307.419678,1242.325562 
	C2292.738770,1233.847168 2278.168945,1225.409302 2262.473877,1218.672485 
	C2248.813232,1212.809204 2236.370117,1204.097046 2223.424805,1196.582153 
	C2211.624512,1189.731689 2199.750977,1182.994385 2188.161133,1175.802002 
	C2183.729980,1173.052246 2179.691406,1169.474854 2176.042236,1165.721924 
	C2173.114990,1162.711060 2173.201904,1159.126953 2176.974365,1156.294556 
	C2182.547363,1152.110229 2187.824707,1147.471069 2193.679199,1143.732300 
	C2240.793213,1113.644043 2288.001465,1083.702515 2335.219727,1053.777832 
	C2339.993408,1050.752441 2344.899902,1047.879028 2349.967773,1045.388794 
	C2357.577881,1041.649170 2365.527344,1041.810303 2372.921143,1045.720459 
	C2401.141846,1060.645386 2429.996826,1074.365967 2456.416016,1092.626099 
	C2470.884277,1102.626099 2486.599121,1110.828857 2501.792969,1119.772095 
	C2514.410156,1127.198730 2526.991943,1134.694092 2539.762939,1141.849487 
	C2555.141846,1150.466309 2570.725342,1158.716919 2586.173828,1167.210815 
	C2590.833496,1169.772705 2595.500488,1172.379272 2599.882324,1175.377197 
	C2611.452393,1183.293213 2623.571289,1189.978394 2636.456543,1195.686035 
	C2651.955322,1202.551147 2666.334961,1211.613159 2677.942627,1224.447632 
	C2681.085938,1227.923096 2682.335205,1231.707031 2682.232422,1236.255615 
	C2682.006104,1246.247803 2681.811035,1256.243408 2681.810303,1266.237549 
	C2681.789307,1584.215942 2681.809082,1902.194458 2681.717529,2220.172852 
	C2681.714600,2230.110107 2680.897949,2240.077148 2679.895020,2249.973145 
	C2679.208008,2256.750488 2676.443359,2262.922852 2670.555664,2266.940674 
	C2659.303223,2274.618164 2648.260010,2282.691406 2636.505127,2289.525879 
	C2610.044189,2304.910645 2583.160400,2319.566406 2556.528564,2334.659668 
	C2538.288818,2344.996338 2520.252441,2355.693848 2501.970459,2365.953857 
	C2497.136963,2368.666260 2491.728027,2370.354248 2486.726807,2372.452637 
	C2481.955078,2369.663330 2480.285156,2365.850830 2479.981201,2361.365479 
	C2479.733398,2357.714111 2479.797852,2354.038818 2479.797852,2350.374023 
	C2479.791016,2032.062256 2479.799072,1713.750366 2479.729004,1395.438599 
	C2479.727783,1389.831665 2478.790771,1384.224854 2478.255859,1377.724121 
z"/>
<path fill="#6EBFEE" opacity="1.000000" stroke="none" 
	d="
M1990.281372,1285.789551 
	C1996.567993,1287.058228 2002.608887,1287.213379 2007.304810,1289.805054 
	C2023.592896,1298.795044 2039.453369,1308.565674 2055.399170,1318.167480 
	C2067.084961,1325.204102 2078.685303,1332.384399 2090.260498,1339.602539 
	C2113.698975,1354.218262 2136.971924,1369.103394 2160.540039,1383.505859 
	C2186.659424,1399.467651 2213.038818,1415.003784 2239.290039,1430.749878 
	C2246.138184,1434.857300 2253.064209,1438.855713 2259.719727,1443.258911 
	C2270.502930,1450.392700 2275.812012,1460.554321 2275.821533,1473.564453 
	C2275.832031,1487.558716 2276.189453,1501.552734 2276.190674,1515.546875 
	C2276.213623,1824.531738 2276.193115,2133.516602 2276.274902,2442.501465 
	C2276.277588,2452.774902 2277.489990,2463.043945 2277.690430,2473.323730 
	C2277.779785,2477.913086 2276.789795,2482.528076 2276.232666,2487.124268 
	C2275.407471,2493.931885 2271.686035,2498.747559 2265.859375,2502.126709 
	C2249.162109,2511.811523 2232.432129,2521.440430 2215.800537,2531.237061 
	C2195.729004,2543.060791 2175.905273,2555.313965 2155.680420,2566.867188 
	C2134.015137,2579.242676 2112.106934,2591.205078 2090.104492,2602.973877 
	C2080.497314,2608.112549 2075.178467,2605.120117 2074.091064,2594.058594 
	C2072.889648,2581.842773 2072.063721,2569.551025 2071.898926,2557.281494 
	C2071.639404,2537.959717 2072.187744,2518.628662 2072.189209,2499.301514 
	C2072.214844,2202.982666 2072.212891,1906.663696 2072.170654,1610.344849 
	C2072.169678,1603.363770 2072.199951,1596.302490 2071.231445,1589.417114 
	C2068.747314,1571.753540 2057.067627,1560.414795 2042.905518,1551.547241 
	C2021.193115,1537.952637 1998.975952,1525.166016 1977.199951,1511.670288 
	C1964.764648,1503.963501 1953.030396,1495.117920 1940.536621,1487.514526 
	C1917.518799,1473.506470 1894.054077,1460.233643 1871.001953,1446.280396 
	C1851.928589,1434.735107 1833.168945,1422.670532 1814.305908,1410.779663 
	C1812.060303,1409.364136 1809.982788,1407.661499 1807.922363,1405.975952 
	C1799.663086,1399.220581 1799.666504,1392.628906 1808.561279,1386.769043 
	C1819.394653,1379.631592 1830.478149,1372.845825 1841.694458,1366.322754 
	C1875.638916,1346.581543 1909.663208,1326.976685 1943.736938,1307.459351 
	C1954.421997,1301.338989 1965.251221,1295.443604 1976.243774,1289.900024 
	C1980.295410,1287.856689 1985.007935,1287.123657 1990.281372,1285.789551 
z"/>
<path fill="#8EFF8E" opacity="1.000000" stroke="none" 
	d="
M1949.213135,782.743958 
	C1980.439453,800.654480 2011.142456,818.015320 2041.621216,835.761230 
	C2069.229736,851.835693 2096.653320,868.231384 2124.002197,884.743713 
	C2128.188232,887.271057 2131.933350,890.843445 2135.167480,894.555298 
	C2139.513672,899.543335 2139.600342,904.989868 2135.040283,909.818726 
	C2129.818359,915.348572 2124.296631,920.924805 2117.960693,925.019226 
	C2079.663574,949.768188 2041.080566,974.074829 2002.626953,998.582092 
	C1988.028198,1007.886108 1973.333130,1017.057007 1959.016602,1026.781372 
	C1942.178345,1038.218506 1924.942993,1039.417725 1907.332642,1029.478027 
	C1886.185303,1017.541870 1865.205078,1005.295471 1844.406616,992.761536 
	C1833.075806,985.933167 1829.437378,976.201660 1830.985718,962.310486 
	C1833.223267,942.234436 1840.016846,923.504639 1844.577393,904.152466 
	C1851.816406,873.433838 1860.076416,842.954956 1867.990479,812.396851 
	C1870.740479,801.778992 1873.729858,791.222839 1876.647705,780.648926 
	C1877.177979,778.727478 1877.827515,776.832458 1878.531006,774.966370 
	C1884.301025,759.659424 1894.806274,751.951904 1913.193481,761.845276 
	C1925.197510,768.304199 1936.806396,775.497559 1949.213135,782.743958 
z"/>
</svg>