<?xml version="1.0" encoding="UTF-8"?>
<!DOCTYPE svg PUBLIC "-//W3C//DTD SVG 1.1//EN" "http://www.w3.org/Graphics/SVG/1.1/DTD/svg11.dtd">
<svg xmlns="http://www.w3.org/2000/svg" version="1.1" width="41px" height="41px" style="shape-rendering:geometricPrecision; text-rendering:geometricPrecision; image-rendering:optimizeQuality; fill-rule:evenodd; clip-rule:evenodd" xmlns:xlink="http://www.w3.org/1999/xlink">
<g><path style="opacity:0.798" fill="#3b55a4" d="M 12.5,10.5 C 13.3024,13.5738 14.3024,16.5738 15.5,19.5C 15.5,21.1667 15.5,22.8333 15.5,24.5C 16.4232,23.6971 17.4232,23.5304 18.5,24C 12.1521,31.098 5.81872,31.2646 -0.5,24.5C -0.5,21.5 -0.5,18.5 -0.5,15.5C 2.58079,11.0395 6.91412,9.37284 12.5,10.5 Z M 15.5,24.5 C 11.9386,27.117 8.60526,26.7836 5.5,23.5C 6.72507,22.8478 7.39174,21.6811 7.5,20C 7.39174,18.3189 6.72507,17.1522 5.5,16.5C 6.63535,14.7868 8.30202,14.1201 10.5,14.5C 10.5,17.8333 10.5,21.1667 10.5,24.5C 12.1667,24.5 13.8333,24.5 15.5,24.5 Z M 5.5,16.5 C 5.5,18.8333 5.5,21.1667 5.5,23.5C 4.05322,22.8658 3.38655,21.6991 3.5,20C 3.38655,18.3009 4.05322,17.1342 5.5,16.5 Z"/></g>
<g><path style="opacity:0.984" fill="#79e6de" d="M 33.5,10.5 C 37.2385,12.0006 39.5718,14.6673 40.5,18.5C 40.5,19.5 40.5,20.5 40.5,21.5C 39.8333,21.5 39.5,21.8333 39.5,22.5C 36.9711,18.7755 34.9711,14.7755 33.5,10.5 Z"/></g>
<g><path style="opacity:0.753" fill="#62b1c9" d="M 29.5,10.5 C 29.5,11.5 29.5,12.5 29.5,13.5C 27.1016,13.2594 25.1016,13.9261 23.5,15.5C 22.5768,16.3029 21.5768,16.4696 20.5,16C 22.6409,12.6798 25.6409,10.8464 29.5,10.5 Z"/></g>
<g><path style="opacity:0.672" fill="#656665" d="M 5.5,16.5 C 6.72507,17.1522 7.39174,18.3189 7.5,20C 7.39174,21.6811 6.72507,22.8478 5.5,23.5C 5.5,21.1667 5.5,18.8333 5.5,16.5 Z"/></g>
<g><path style="opacity:0.896" fill="#4b79b2" d="M 12.5,10.5 C 16.1667,13.8333 19.8333,17.1667 23.5,20.5C 24.1667,23.1667 24.8333,25.8333 25.5,28.5C 22.1667,25.5 18.8333,22.5 15.5,19.5C 14.3024,16.5738 13.3024,13.5738 12.5,10.5 Z"/></g>
<g><path style="opacity:0.251" fill="#5b9ec1" d="M 23.5,15.5 C 25.1667,15.5 26.8333,15.5 28.5,15.5C 28.5,18.8333 28.5,22.1667 28.5,25.5C 30.2161,25.3713 31.8828,25.038 33.5,24.5C 33.2322,26.099 33.5655,27.4324 34.5,28.5C 31.6038,29.7752 28.6038,29.7752 25.5,28.5C 24.8333,25.8333 24.1667,23.1667 23.5,20.5C 23.5,18.8333 23.5,17.1667 23.5,15.5 Z"/></g>
<g><path style="opacity:0.671" fill="#656665" d="M 33.5,16.5 C 34.1667,16.5 34.5,16.8333 34.5,17.5C 34.5,19.1667 34.5,20.8333 34.5,22.5C 34.5,23.1667 34.1667,23.5 33.5,23.5C 32.1667,21.1667 32.1667,18.8333 33.5,16.5 Z"/></g>
<g><path style="opacity:0.188" fill="#71d3d6" d="M 29.5,10.5 C 30.8333,10.5 32.1667,10.5 33.5,10.5C 34.9711,14.7755 36.9711,18.7755 39.5,22.5C 39.2283,25.7322 37.5616,27.7322 34.5,28.5C 33.5655,27.4324 33.2322,26.099 33.5,24.5C 33.5,24.1667 33.5,23.8333 33.5,23.5C 34.1667,23.5 34.5,23.1667 34.5,22.5C 35.8333,20.8333 35.8333,19.1667 34.5,17.5C 34.5,16.8333 34.1667,16.5 33.5,16.5C 32.5637,15.0256 31.2303,14.0256 29.5,13.5C 29.5,12.5 29.5,11.5 29.5,10.5 Z"/></g>
</svg>
